<svg xmlns="http://www.w3.org/2000/svg" viewBox="170.77999877929688 -121.85999145507813 158.44000244140625 393.71998291015626" style="background: rgb(0, 0, 0);" preserveAspectRatio="xMidYMid"><defs><filter id="editing-hole" x="-100%" y="-100%" width="300%" height="300%"><feFlood flood-color="#ffffff" result="black"></feFlood><feMorphology operator="dilate" radius="2" in="SourceGraphic" result="erode"></feMorphology><feGaussianBlur in="erode" stdDeviation="4" result="blur"></feGaussianBlur><feOffset in="blur" dx="2" dy="2" result="offset"></feOffset><feComposite operator="atop" in="offset" in2="black" result="merge"></feComposite><feComposite operator="in" in="merge" in2="SourceGraphic" result="inner-shadow"></feComposite></filter></defs><g filter="url(#editing-hole)"><g transform="translate(199.99999809265137, 129.8849983215332)"><path d="M47.75-29.59L47.75-112.60L55.18-112.60L55.18-102.83L70.21-83.98L70.21-83.98Q80.76-69.63 80.76-53.03L80.76-53.03L80.76-53.03Q80.76-38.38 71.58-26.56L71.58-26.56L66.99-26.56L66.99-26.56Q72.56-38.96 72.56-50.78L72.56-50.78L72.56-50.78Q72.56-62.40 66.99-70.21L66.99-70.21L66.99-70.21Q61.43-78.03 55.18-79.00L55.18-79.00L55.18-29.59L55.18-29.59Q55.18-17.58 48.00-10.21L48.00-10.21L48.00-10.21Q40.82-2.83 30.37-2.83L30.37-2.83L30.37-2.83Q24.80-2.83 22.02-5.52L22.02-5.52L22.02-5.52Q19.24-8.20 19.24-12.60L19.24-12.60L19.24-12.60Q19.24-20.21 25.34-25.83L25.34-25.83L25.34-25.83Q31.45-31.45 38.96-31.45L38.96-31.45L38.96-31.45Q43.16-31.45 47.75-29.59L47.75-29.59Z" fill="#ffffff"></path></g></g><style>text {
  font-size: 64px;
  font-family: Arial Black;
  dominant-baseline: central;
  text-anchor: middle;
}</style></svg>